Coordinates
version=1
nRows=14
nColumns=40
inDegrees=yes

Units are S.I. units (second, meters, Newtons, ...)
Angles are in degrees.

endheader
time	pelvis_tilt	pelvis_list	pelvis_rotation	pelvis_tx	pelvis_ty	pelvis_tz	hip_flexion_r	hip_adduction_r	hip_rotation_r	knee_angle_r	knee_angle_r_beta	ankle_angle_r	subtalar_angle_r	mtp_angle_r	hip_flexion_l	hip_adduction_l	hip_rotation_l	knee_angle_l	knee_angle_l_beta	ankle_angle_l	subtalar_angle_l	mtp_angle_l	lumbar_extension	lumbar_bending	lumbar_rotation	arm_flex_r	arm_add_r	arm_rot_r	elbow_flex_r	pro_sup_r	wrist_flex_r	wrist_dev_r	arm_flex_l	arm_add_l	arm_rot_l	elbow_flex_l	pro_sup_l	wrist_flex_l	wrist_dev_l
     30.86314286	     -7.25512183	     -5.84018745	      3.62290082	      0.69700280	      0.91772225	      0.48750991	      5.73632309	      4.56445820	    -15.03169818	     13.17712535	     13.17712535	     16.68054533	      0.96839501	     -2.81404016	     33.47791821	     -8.79461516	     -2.93888448	     19.08866482	     19.08866482	      5.94508684	     -8.11467129	      7.91832457	     -9.65123309	      6.65472841	      1.91410760	     38.39166216	    -16.95348235	     -3.13246457	     88.90171377	     44.60912296	      0.00000000	      0.00000000	    -11.75523734	     -8.22033237	     -0.25779831	     28.23670470	     45.51516073	      0.00000000	      0.00000000
     30.87628571	     -7.16142970	     -5.85310239	      3.62003317	      0.69865942	      0.91684391	      0.48595270	      5.03458210	      4.52348223	    -14.95087098	     13.19630226	     13.19630226	     17.41079451	      1.15950715	     -1.91825191	     33.11511798	     -8.72974884	     -3.23018926	     19.28927919	     19.28927919	      4.25135290	     -8.50767949	      5.27829017	     -9.44381186	      6.48458425	      2.34605546	     37.71854527	    -17.05199030	     -3.22704512	     90.67594610	     44.59866353	      0.00000000	      0.00000000	    -11.88829944	     -8.33321140	      0.01743887	     28.47015345	     45.49457438	      0.00000000	      0.00000000
     30.88942857	     -7.10999656	     -5.84366950	      3.64638643	      0.70032637	      0.91593405	      0.48428353	      4.35558946	      4.45919026	    -14.87115266	     13.13578443	     13.13578443	     17.82545834	      1.19637434	     -1.80890377	     32.93740179	     -8.64076093	     -3.29612034	     19.95117248	     19.95117248	      3.61541188	     -8.72912150	      4.90923544	     -9.20296159	      6.24888410	      2.15210497	     37.46970716	    -16.43405773	     -3.00306143	     91.38556746	     44.57818593	      0.00000000	      0.00000000	    -12.09820639	     -8.33716153	      0.07093786	     28.27091283	     45.48999813	      0.00000000	      0.00000000
     30.90257143	     -7.04257265	     -5.72360074	      3.63004863	      0.70214478	      0.91515098	      0.48249105	      3.68607732	      4.25279518	    -14.73848265	     13.16579699	     13.16579699	     18.19905645	      1.17182008	     -1.81419260	     32.67970766	     -8.47537654	     -3.38568221	     20.67173616	     20.67173616	      3.22000221	     -8.95065516	      4.75960996	     -8.93972627	      5.91227164	      2.17405172	     37.03095896	    -16.07220899	     -2.78643081	     91.63104660	     44.56418862	      0.00000000	      0.00000000	    -12.12898287	     -8.37868235	      0.05954745	     28.22415114	     45.49313863	      0.00000000	      0.00000000
     30.91571429	     -6.99088126	     -5.74980875	      3.63988019	      0.70391766	      0.91429002	      0.48065225	      3.10241277	      4.19052766	    -14.63102102	     13.30437401	     13.30437401	     18.64678349	      1.10372868	     -1.39912679	     32.57717967	     -8.44171623	     -3.22337113	     21.62109982	     21.62109982	      2.76012660	     -9.41378882	      3.77995431	     -8.75344734	      5.76439881	      2.06591108	     36.39011414	    -15.72140989	     -2.32321332	     93.10379927	     44.51403655	      0.00000000	      0.00000000	    -12.08832618	     -8.33199611	     -0.04862880	     28.08382240	     45.52070428	      0.00000000	      0.00000000
     30.92885714	     -6.90174572	     -5.56437442	      3.61563449	      0.70577388	      0.91384799	      0.47855674	      2.47063982	      3.87245231	    -14.49217845	     13.44532229	     13.44532229	     18.94470296	      1.01590744	     -1.41372634	     32.22226025	     -8.19950046	     -3.16423058	     22.32781715	     22.32781715	      2.77600828	     -9.68107413	      3.56734397	     -8.53917023	      5.43124995	      2.13225104	     35.77950971	    -15.40590101	     -2.08174853	     93.12797832	     44.50457847	      0.00000000	      0.00000000	    -11.87572308	     -8.34032569	     -0.06670500	     28.12691752	     45.52817812	      0.00000000	      0.00000000
     30.94200000	     -6.74151374	     -5.42469706	      3.54057444	      0.70754428	      0.91366647	      0.47652725	      1.88284629	      3.57629868	    -14.33073240	     13.78281987	     13.78281987	     19.08184230	      0.89389941	     -1.37908236	     31.89593877	     -8.02884013	     -3.02730399	     23.24699830	     23.24699830	      3.03295028	    -10.16745038	      3.23507644	     -8.50169716	      5.03802033	      2.11583549	     34.96323466	    -15.03903639	     -1.74908475	     93.20607700	     44.48995734	      0.00000000	      0.00000000	    -11.55456984	     -8.37051543	     -0.09490358	     28.16909013	     45.53942888	      0.00000000	      0.00000000
     30.95514286	     -6.57875960	     -5.33114473	      3.48001116	      0.70920249	      0.91369156	      0.47439095	      1.41242719	      3.29622799	    -14.16649275	     14.32046107	     14.32046107	     19.22939198	      0.67303908	     -1.36426601	     31.58555608	     -7.87682662	     -2.80014618	     24.16353194	     24.16353194	      3.38113091	    -10.72649306	      2.90731617	     -8.49511091	      4.76004232	      2.12464251	     34.09690809	    -14.71330087	     -1.35132303	     93.31868992	     44.47231796	      0.00000000	      0.00000000	    -11.14104784	     -8.37602588	     -0.13423070	     28.21678339	     45.55431617	      0.00000000	      0.00000000
     30.96828571	     -6.65462352	     -5.24485009	      3.34106140	      0.71036016	      0.91348264	      0.47213431	      1.71366833	      2.89149095	    -13.76007428	     15.77937747	     15.77937747	     19.50449595	     -0.13384549	     -1.18409837	     31.55836881	     -7.63931216	     -2.34658827	     25.06661124	     25.06661124	      3.68652725	    -11.87077869	      2.71229193	     -8.31720985	      4.55451695	      2.41006192	     33.01848059	    -15.09565238	     -0.52684909	     94.14197820	     44.42704902	      0.00000000	      0.00000000	    -10.39145331	     -8.33015969	     -0.37417386	     28.01106212	     45.61314706	      0.00000000	      0.00000000
     30.98142857	     -6.50416817	     -5.09057816	      3.20360825	      0.71182561	      0.91409965	      0.46981018	      1.56643469	      2.45232049	    -13.48935517	     16.85588702	     16.85588702	     19.56523026	     -0.59337820	     -1.11849343	     31.04047480	     -7.37770691	     -2.13668157	     25.60003299	     25.60003299	      4.22876205	    -12.57189051	      2.66973290	     -8.32863246	      4.28226832	      2.67791296	     31.84883293	    -15.17668347	      0.07179928	     94.19984579	     44.41091545	      0.00000000	      0.00000000	     -9.55725524	     -8.29677006	     -0.57660440	     27.97004347	     45.66495867	      0.00000000	      0.00000000
     30.99457143	     -6.25119514	     -5.09010258	      3.11338212	      0.71329708	      0.91518185	      0.46744685	      1.28306647	      2.17392247	    -13.34865368	     17.82976177	     17.82976177	     19.37889060	     -0.83684125	     -1.18891561	     30.38635566	     -7.27323035	     -1.91876006	     26.03322562	     26.03322562	      4.83348857	    -12.98442487	      2.52020871	     -8.48522620	      4.21926261	      2.71934195	     30.62700932	    -14.78817695	      0.56564433	     93.89227650	     44.40277127	      0.00000000	      0.00000000	     -8.76627677	     -8.23813638	     -0.63523623	     28.18265735	     45.68888724	      0.00000000	      0.00000000
     31.00771429	     -6.26726630	     -4.84647934	      2.85305833	      0.71433022	      0.91595886	      0.46508188	      1.91692251	      1.46844132	    -12.97035613	     19.96062707	     19.96062707	     19.27796182	     -1.59048702	     -1.64731826	     29.89226504	     -6.90973836	     -1.89053065	     26.27906815	     26.27906815	      5.41952264	    -13.71144106	      2.77366097	     -8.38671249	      3.84456425	      3.15882232	     29.42004205	    -15.09739851	      1.20877826	     93.28417032	     44.40547496	      0.00000000	      0.00000000	     -7.77861693	     -8.23775592	     -0.89664699	     28.41826668	     45.74942881	      0.00000000	      0.00000000
     31.02085714	     -6.18298604	     -4.74680786	      2.63963205	      0.71545650	      0.91711680	      0.46272767	      2.39754468	      0.92424394	    -12.68178867	     21.94794502	     21.94794502	     18.86405103	     -2.17897972	     -2.28229981	     29.23344360	     -6.67780031	     -1.75984837	     26.38124520	     26.38124520	      6.01112842	    -14.22098945	      3.13535865	     -8.36698047	      3.66863437	      3.43135285	     28.08902123	    -15.13949890	      1.88779742	     92.46744648	     44.41442581	      0.00000000	      0.00000000	     -6.78649699	     -8.19533628	     -1.21978044	     28.81696588	     45.81763123	      0.00000000	      0.00000000
     31.03400000	     -6.10030837	     -4.63404496	      2.42306180	      0.71652613	      0.91840271	      0.46031504	      2.91774816	      0.36800763	    -12.38072588	     23.86158921	     23.86158921	     17.32208086	     -3.28966572	     -5.75997250	     28.57531962	     -6.39664359	     -1.61633436	     26.51619321	     26.51619321	      7.16193401	    -14.62754816	      5.04690427	     -8.34621334	      3.50810449	      3.18768832	     27.20626284	    -14.89938192	      3.22339434	     90.63526057	     44.48743928	      0.00000000	      0.00000000	     -6.19876497	     -8.01144131	     -3.21591624	     29.92389980	     46.12201400	      0.00000000	      0.00000000
